# xmcd
#
# Track frame offsets:
#	150
#	12337
#	31312
#	47475
#	60150
#	79200
#	91200
#	105900
#	118462
#	134587
#	146287
#
# Disc length: 2231 seconds
#
# Revision: 0
# Processed by: cddbd v1.5.2PL0 Copyright (c) Steve Scherf et al.
# Submitted via: EasyCDDAExtractor 16.0.1.1
#
DISCID=8708b50b
DTITLE=Hazel Dickens - It's Hard To Tell The Singer From the Song
DYEAR=1986
DGENRE=Country
TTITLE0=Don't Bother To Cry
TTITLE1=Hills Of Home
TTITLE2=Do Memories Haunt You
TTITLE3=Here Today  Gone Tomorrow
TTITLE4=It's Hard To Tell The Singer From The Song
TTITLE5=You'll Get No More Of Me
TTITLE6=Only A Hobo
TTITLE7=A Few Old Memories
TTITLE8=Will jesus Wash The Bloodstains From Your Hands
TTITLE9=California Cottonfields
TTITLE10=Play Us A Waltz
EXTD=
EXTT0=
EXTT1=
EXTT2=
EXTT3=
EXTT4=
EXTT5=
EXTT6=
EXTT7=
EXTT8=
EXTT9=
EXTT10=
PLAYORDER=
